<svg xmlns="http://www.w3.org/2000/svg" id="Capa_2" data-name="Capa 2" viewBox="0 0 845.86 338.67">
  <defs>
    <style>
      .cls-1{fill:#fff}
    </style>
  </defs>
  <g id="Capa_1-2" data-name="Capa 1">
    <path d="m607.55 219.1.38 2.25-6.39 17.14c9.03.89 17.27 1.08 26.12.77.42-.07.43-.46.19-.69l23.07.23c.26 2.86.73 5.86-.25 8.97l-15.75.36c-2.88 11.85-6.62 23.15-14.23 32.95 1.65 1.92 3.16 3.04 5.09 4.08 7.95 4.28 15.29 9.03 22.41 15.25-1.54 3.23-3.93 4.95-6.4 7.3-8.34-6.4-16.67-11.44-25.28-17.04-1.96-1.28-3.84-1.65-5.84-.18-11.99 8.8-25.07 15.28-39.83 18.41l-5.16-5.47c.32-.51-.55-2 .25-2.73 2.01-1.82 4.66-1.95 6.89-2.29 5.27-.8 10.76-2.78 14.94-6.08.33-.01.67.1 1 .05.48-.07 1.49-.06 1.04-.89.27-.07.6.05.87-.04 4.36-1.47 8.7-3.84 12.09-7.81-9.39-4.69-18.07-8.67-27.03-11.95l-.9-1.67c1.42-.89 2.32-2.52 3.24-4.32l8.71-17.09-22.35-.53c-1.04-3.18-.77-6.07-.49-8.74l1.65-.13c8.42-.64 16.83.37 25.86-.16l7.75-20.76c3.64.07 5.89.51 8.35.8Zm-5.88 53.14c.31.06.7.1 1.01.06 1.92 2.15 5.07 2.9 8.1 4.5 7.68-8.02 11.71-17.67 13.97-28.35-6.98-.58-12.92-.06-19.04-.13-.91-.01-1.89.18-2.79.06-1.43-.19-3.48-.59-5.17.3-.63.33-8.01 14.91-9.17 17.82 4.17 2.8 8.67 4.88 13.1 5.73ZM741.52 223.04c.35 0 .75.35 1.1.3l.1 8.02c-.36.26-.65.63-1.02.88l-33.45-.31c-.82 8.46-.31 16.47-.18 25.34l29.75.33c-.04.31.18.65.17.97l-.08 6.57-29.87.66.07 29.32 36.84.13c1.41 2.52 1.26 5.76.59 9.02l-84.45.31-.27-7.85 1.05-1.19 36.88-.17.13-29.16-28.45-.26c-.75-2.02-.99-7.48 1.15-7.87 8.98-1.62 17.33-.21 26.97-.53.46-8.52.48-16.93-.04-25.42l-33.59.05c-.02-.47-.11-1.23-.11-1.75l-.03-4.17c-.01-1.39.64-1.95 1.21-2.99l75.53-.24ZM777.77 219.2l.71 14.1c4.1.76 7.22 0 10.4.07.27.27.93.08 1.27.25l.17 38.89-12.28.92c.11 5.43-.62 10.55-.08 15.91.24 2.36 4.32 2.41 5.24.66 1.65-3.12-1.5-6.13-2.02-8.79-.37-1.88 5.52-4.13 6.58-2.15 3.82 7.13 5.47 15.14 4.94 22.45l-.12 1.66c-.95.17-2.71-.21-2.95 1.03-1.27-.12-2.72-.31-3.96-.8-.14-1.22.32-4.37-.98-4.92-7.7-1.09-18.26 6.41-25.94 4.9-2.92-.57-2.51-5-3.12-6.98 1-.21 1.83-1.23 2.97-1.1 2.57-.06 5.2-.5 7.34-1.97.43-.3 1.45-.28 1.92-.44.58-.21 2.41.32 2.42-.71l.26-18.5c-3.57-1.14-6.65-.29-9.81-.39-.71-.82-3.08-.01-2.92-1.85.09-1.02-.02-2.07-.02-3.1l.02-27.91v-3.06c0-2.17.19-3.06 1.88-3.89 3.45-.18 6.89.47 10.81-.34.43-4.5.33-8.67.04-12.75.71-1.85 1.16-2.64 3.75-2.43 1.14.1 2.44.21 3.44 1.24Zm5.26 44.79c.36-8.08.75-14.93-.03-22.28-.13-1.2-3.09-.8-3.98-.22-2.47 1.62-.16 16.62-1.78 22.45.58 1.56 5.72 1.62 5.79.04Zm-12.46-.12c.47-7.64.3-14.25.07-21.63-.05-1.53-4.64-1.32-4.69.35-.23 7.41-.44 14.34-.08 21.9.06 1.29 4.59 1.26 4.7-.62M841.1 261.28c-.23.52.3 1.57.23 2.12-.15 1.11.5 4.46-1 4.54l-16.3.92c-1.71.1-.4 5.13 1.68 5.13 4.57-.01 8.57-.34 13.19.09.91 2.16.5 4.27.69 6.25-.22.03-.47-.04-.69.01-4.37 1.04-9.36.43-14.34 1.21-1.37.22-.98 5.09.41 5.19 5.9.44 11.57.51 17 .36 1.62.12 2.96.82 2.84 2.8-.11 1.69.09 3.28-.95 4.48l-20.11.41c.51 4.67.49 8.15.01 11.65-.3.32-.61.63-.94.93-2.41-.03-4.83 0-7.23.29l-.9.11-.15-12.38c-6.03-.63-11.82.9-18-.35-2.02-.41-1-5.53-.52-7.35l17.67-.81c1.56-.07 1.67-5.24.15-5.29l-14.1-.45c-1.74-.06-1.66-6.61.07-6.69l13.83-.6c1.64-.07 1.74-4.76.24-4.98-5.57-.81-10.35.24-15.69-.08-.99-2.18-.79-4.64-.17-7.21l16.7-1.11c.27-3.83 1.66-4.83 4.49-5.16 3.87-.44 4.53 2.01 5.39 5.17l16.48.78Z" class="cls-1"/>
    <path d="M811.76 218.16c1.01 0 2.14.47 3.14.23 2.16-.53 1.53 2.46 1.87 4.54l22.11 1.02c1.15 11.27-9.91 16.91-10.01 20-.08 2.48 13.78 3.7 16.99 6.15-.77 3.42-2.24 6.32-4.93 7.1-2.94-1.39-6.29-1.71-9.78-2.61-3.97-1.03-7.09-4.09-11.2-4.9-5.31 1.9-20.51 10.99-24.34 7.3-.97-.93-3.15-4.45-1.35-5.1l14.76-5.36c.99-.36 3.99-1.4 3.09-2.69-1.83-2.63-4.91-4.29-7.41-6.57-2.79.98-4.14 4.67-6.97 4.84-3.34-.3-5.12-5.15-3.25-7.58.35-.45.91-.71 1.27-1.13 1 .26 1.36-.79 2.01-1.14 2.49-1.36 3.81-4.04 5.83-5.85 2.64-2.36 3.84-5.64 6.26-8.21.56.1 1.31-.02 1.9-.02Zm16.06 13.46c-6.73-.46-11.13-1.23-16.66.56 2.14 3 5.28 7.29 8.57 6.99 3.85-.35 6.02-5.1 8.09-7.55M398.71 295.48c-.24.82.37 1.9.03 2.75-2.13.05-4.19.01-6.69-.34-.61 1.06-.22 3.47.84 3.72-.12 1.39-.97 2.44-1.93 2.56-1.48.19-3.12.21-4.26-.04-.81-1.74 1.33-3.03 1.89-4.21-3.25-1.25-5.48-3.51-7.24.42-.72-.27-.77-1.4-.43-1.98.18-.3.8-.41 1.97-1.52-2.66-1.59-5.43.41-7.9 1.96-.6.37-2.11-.51-2.71-.56-.67-.05-2.09.69-1.43 1.95.44.84 1.69 1.62 1.88 2.64.1.5-.23 1.13-.86 1.53-1.35-.04-2.74-.21-4.08-.07-1.47-3.19-1.18-6.93 1.93-8.87-3.07-3.08-3.29-8.35-1.07-11.11.92-1.14 3.79-2.94 5.13-3.37 1.8-.58 1.89 2.02.57 2.85l-3.56 2.21c2.68.54 5.34.56 8.18.02-2.4-6.25 2.33-3.98.41-7.89-.23-.47-.65-1.11-1.6-.24-.45.41-.96 1.12-2.21 1.65-.69-1.81-.17-4.4-2.25-4.35-4.83.12-3.71 4.15-5.24 4.97-1.89 1.02-3.52-1.39-6.78.29-1.17.61-1.13 2.44-2.2 3.55-1.19 1.23-4.35.56-6.79 1.12-1.66-5.28 3.33-3.13 1.47-8.71 3.56.37-.24-3.87 12.97-4.03.53-3.89 3.48-7.21 5.47-10.08.66-.95-.5-4.85 2.27-3.67.16 1.47.38 3.06 1.04 3.78 1.14 1.24 2.02.33 3.37-1.18l1.41 11.51c.95.62 3.47.14 4.55.73.86.47.88 2.99 2.06 3.29 1.5.38 3.07-.98 4.17-.27.81.53 2.75 2.33 1.89 3.5-2.11 2.87-.97 5.11-.83 7.92.13 2.49-2.6 4.37.21 6.5 2 1.52 3.93 2.55 6.36 1.06Zm-15.92-9.29c-2.44.82-2.52 3.66-1.58 5.41.75 1.41 2.94 1.91 4.57 1.55 2.17-.48 2.36-3.19 2.11-5.12-.18-1.38-3.03-2.55-5.1-1.85Zm-6.46 2.2c-1.47-.57-3.75-.31-4.38.21-1.55 1.29-.09 4.19 1.44 4.59 1.01.27 2.33.18 3.44-1.01.68-.73 1.86-2.89-.49-3.79Z" class="cls-1"/>
    <path d="M353.78 276.43c-1.87-.2-1.62 4.08-5.73 3.03.1-1.24.03-2.8-.27-4.01.31-2.01 1.85-2.96 3.5-2.95 2.79.01 3.14 1.73 2.5 3.93M134.65 292.31c-.04.6.51 2.11-.29 2.53-2.64 1.37-5.54.52-7.91 2.37 1.15 1.06 3.06 2.6 2.14 3.38-2.87 1.17-7.45 1.33-7.89-1.99 1.1.16 1.2-1.05 1.1-2.29s-1.58-1.37-1.95-.37c-.13.35-.19.82-.32 1.47l-2.83-.09c-.02-.86.09-3.23-1.02-3.55-2.27 0-4.27.58-5.95 1.31l-2.92 1.27c-.84.36-1.24.28-1.1 1.53.12 1.01-.01 1.6 1.22 1.3.95-.23 2.36-.27 2.96 1.11-2.75.81-4.77.46-6.88.59.52-1.89.44-3.82 0-5.9 1.39-.53 2.41-.03 3.79-1.27-3.37-2.02-5.31-8.2-3.14-11.2 2.89 0 7.81 2.66 9.97-.28.61-.83-.13-3.11 1.38-2.6.69.24 1.23 1.26 3.26.36l-4.91-5.73c-.74 2.63-.91 4.37-2.65 5.54-1.32.88-3.3 1.84-5.35.88-1.18-1.73 11.62-8.38 4.91-8.45-1.91-.02-1.83 4.4-3.96 3.14-.97-.58.16-3.92-2.05-3.83-.77.03-1.61.59-1.63 1.37-.01.49.61 1.1.79 1.94.47 2.2-1.8 3.18-3.07 3.15-5.52-.13-5.3-3.69-7.29-2.55-.63.36-2.19 1.17-1.14 1.93.99.72 2.46.58 2.99 1.12.48.48.87 2.31.19 2.65-2.33 1.16-5.03.19-7.37.18-3.7-1.65 1.45-4.21-3.85-3.34-.28-2.49-.03-5.36.04-7.68 2.7-.79 5.5.58 7.85 1.43 3.85-3.32 11.24 1.3 11.6-4.51.44-7.05 10.17-5.83 7.94-8.47 2.75 3.25 2.57-5.83 4.74 11.45 2.99-.13 5.04.93 6.42 3.42.98.74 2.94-.03 3.66 1.7-1.76 1.13-3.74.91-4.69 3.15l5.23 2.06.02 11.19c2.89-.1 1.78-2.82 3.9-3.77.95 2.77 1.74 4.79 4.08 4.36Zm-16.66-8.32c-2.35.78-2.26 3.97-1.5 5.4 1.16 2.17 3.11 2.04 4.43 1.56 2.12-.76 2.95-3.18 2.15-5.1s-2.47-2.73-5.08-1.86m-8.45 4.19c1.04-.68 2.13.1 2.72.02.41-.06 1.1-1.37.75-1.69-2.91-2.66-4.89-.01-7.56 1.9-1.35.97.68 2.26 1.83 2.27 1.03 0 1.26-1.85 2.25-2.5ZM455.81 304.31l-4.09-.04c-.89-2.04-1.89-4.9-.43-7.27.4-.65 2.76-.71 2.18-1.93s-2.87 1.8-3.12-8.49c-.04-1.55 1.17-2.89 2.06-3.2 2.99-1.02 3.74 3.52 8.73 1.96 1.13-.35-.11-3.26 1.7-4.27.95-.53 2.52 3.22 3.67.31-2.83-.64-3.1-3.03-3.22-5.79-2.03 1.86-3.62 7.65-6.08 7.02-3.61-.93 3.31-4.71.57-5.16-1.61-.27-3.01-.04-3.01-1.39 0-.54 1.09-1.93.66-2.72-.93-1.09-2.47.67-3.13 1.45-.9 1.07.13 3.18.49 4.68s-2.51 1.72-3.2 1.02c-.45-.45-.94-.97-1.96-1.72-1.2.68-2.33 1.8-3.43 1.75s-1.41-1.42-1.99-2.44c-.64-1.12-1.91-.71-2.36 0-.22.34-.36 1.32-.16 1.79.16.38.6.68 1.41.99 1.62.63 2.22 1.69 1.46 3.04-.41.73-5.72 1.63-7 .03-1.81-2.27 4.91-4.33 1.57-6.29-1.83-1.08-2.84 2.95-5.47 2.11-.35-2.19-.01-4.4 0-6.59 1.39-.15 2.79-.39 4.51-.08 1.32.24 1.32 1.92 2.76 3.73 3.42-7 6-2.09 11.95-4.45-1.29-8.71 5.21-6.29 10.17-10.22 1.41 3.66 1.89 6.75 2.35 10.76 4.98-.59 8.44 3.94 8.15 8.3 9.6 5.83-1.52 9.2 5.6 15.05-1.77 1.49-3.34 2.4-4.83 4.1-11.28-6.37-4.74-3.31-19.45-1.49 1.57 2.93 3.67 3.38 2.92 5.44Zm9.43-11.02c3.12 1.47 5.74.21 5.77-2.21.02-1.36.6-4.32-1.63-4.71-1.53-.27-4.99-.53-5.34 1.5-.23 1.36-.65 4.55 1.2 5.43Zm-4.46-4.49c-.34-.58-1.15-1.31-2.01-.77l-5.14 3.21c.5 1.8 1.5 2.21 2.66 2.21.09 0 5.1-3.62 4.49-4.64ZM287.68 297.62c.08.86-1.56 2.36-.68 3.21s2.05.56 2.89.64l-.12 1.73c-1.86.04-3.59.35-6.02.11.59-2.25.64-4.01.87-6.26 1.51-.16 2.26.34 3.07.57ZM313.74 277.42c2.81.14 2.36 2.73 2.46 4.86-2.96-1.36-7.8 3.97-6.88 5.95.61 1.32 1.36 2.1 2.72 2.16.1 1.33.51 2.57.83 3.83.37 1.44 1.66 1.34 2.98 1.17.3 1.02-.59 1.62-1.01 2.38-1.83-.24-3.74-.49-5.91.04-.78 1.86.03 3.29.63 4.62-.94 2.33-3.2.81-4.99 1.06-.16-.86.44-1.76 1.28-1.89.46-.07 1.45.32 2.02-.1.02-1.5-1.81-3.87-3.19-4.05-1.03.47-1.19 3.32-2.86 2.94-.23-.87-1.46-1.42-1.87-2.08-.37-1.79-1.81-2.33-3.61-1.98-1.21.24-2.24 1.04-2.63 2.35-.67.08-1.42.26-2.09.06l-3.92-1.13c-.17-1.84-.38-4.17.82-6.15-2.25-.53-2.95.62-3.63.34-.85-3.86.07-8.17 3.43-7.73 1.16.93 1.92 3.27 3.86 2.88 2.08-.42 2.67-1.44 3.91-3.34 1.65-2.52 2.36-5.37-.49-7.59-.59 1.61-1 4.41-2.99 3.18-.29-1.06.55-4.97-1.62-5.15-1.43-.09-3.54 1.68-5.39 2.15-.55 1.25.21 3.4-1.5 3.98-5.6 1.88-11.11-1.98-10.32-3.93.19-.46.92-1.74 1.5-1.75.53-.01.99 1.33 2.04 1.96 1.42-2.42 2.99-4.25 6.6-3.89l2.88-8.03c-1.16-1.69-1.16-2.32 1.33-2.31 1.13 0 2.25 2.48 3.1 2.06l3.63-1.81c1.3-.65.31 2.66.01 3.67-.99 3.29-7.62-.44-7.66 2.7-.01 1.05.25 3.34 1.71 2.31.52-.37.48-1.64.78-2.14 1.38-2.32 1.6 2.52 3.65 2.97 1.23.27 1.07-1.48 1.22-2.88.19-2.48 1.74-2.29 1.93.06.15 1.48.08 2.62.47 3.49.51 1.12 2.65.03 3.89.58 3.1 1.37 3.39 5.69 4.77 8.36 1.17 2.26 9.45-3.47 8.11-4.16Zm-14.22 15.79c1.36.78 4.06.71 4.56-.38.79-1.74 1.25-6.11-.43-7.14-2.81-1.72-5.76 1.18-7.81 2.13 1.82 1.79 1.51 4.15 3.69 5.39Zm-6.31-2.17c1.88-1.83-.36-2.86-2.01-2.62-1.36.19-1.77 1.08-1.64 3.29.08 1.37 2.25.7 3.65-.66ZM192.78 272.54c-.16.85-.1 2.16 0 3.02-1.94-.28-3-.18-3.64.62-.38.47-.72 2.18-1.31 2.21-2.02.1-1.66-1.95-3.15-3.69-.34 2.87-3.78 2.48-4.75 3.88-2.03 2.93-1.85 5.18-6.44 4.09-2.68-.64-3.51-2.79-3.66-5.9-.06-1.35-3.48-3.42-2.17-5.24 2.26-3.12 5.42 1.47 7.3 1.03 2.14-.5 8.07-4.41 17.83-.02Z" class="cls-1"/>
    <path d="m217.48 295.91-3.65 1.54c.18-1-1.45-3.01-2.16-1.76-.86 1.5.86 3.41 1.28 4.65-.33 1.63-1.09 1.5-2.72 1.78-1.44.24-1.95-.89-2.75-1.5 4.81-2.29-6.61-5.84-8.87-6.09-5.51 4.05-8.51-.08-9 3.33-.3 2.05 5.13 1.7 3.4 3.74-2.32-.52-5.79 1.2-6.53-2.09.05-1.11 0-2.23.21-3.57s1.92-1.53 3.53-2.4c-1.04-1.57-2.73-1.21-3.13-2.01-.62-1.24-.62-8.47.19-9.98.5-.92 2.12-1.54 3.68-1.97 2.33-.65 2.01-2.45 1.83-4 .72.1 1.44.23 2.26-.26.54-.33 1.11-1.04.34-1.97-.35-.43-1.25-.56-2.59-.79.94-4.88-7.07-3.21-2.72-11.76 3.13 1.98 6.83-.9 8.68 2.79 1.05 2.1-.08 4.81.59 7.47 3.32-.91 4.93 1.2 7.11 2.59-1.77-1.12 11.53 4.59 7.62 6.44-2.67 1.27-2.5-3.41-5.49-2.96-.97.15-2.28-.14-2.22 1.8 8.36.28 4.43 12.57 5.16 13.27.36.35 2.08.11 1.97-.61-.15-.93-.68-1.45-.51-1.79.34-.68 2.1-1.21 2.47-.25.92 2.35 1.45 4.39 2.05 6.36Zm-20.6-12.13c1.49.33 1.73-5.18.1-4.83-2.99.64-5.63 2.32-7.67 3.83 2.45 1.74 4.85.39 7.57 1m7.83.22c-3.13-.22-4.44 1.56-4.74 4.09-.22 1.85 1.6 3.15 3.38 3.34 2.42.26 4.57-.42 4.55-3.43-.01-1.48-.46-3.81-3.18-4Zm-8.79 2.99c-.38-.47-1.93-1.76-2.61-1.23l-4.35 3.37c1.87 1.12 2.15 2.39 3.28 2.22.05 0 4.66-3.14 3.67-4.36Zm14.84 12.89c0-.28-.22-.5-.5-.5s-.5.22-.5.5.22.5.5.5.5-.22.5-.5M48.63 290.32c1.9 1.35 3.42 2.92 2.89 6.17-1.37-1.37-2.54-.76-3.76-.33-.95.33-2.9-1.34-3.53-.7-1.12 1.14-.21 3-.5 4-.57 0-1.16-.15-1.73-.11.72-.64-.11-1.46-.78-1.96-.5-.38-1.23.05-1.46.65-.14.36 0 .85-.02 1.38-.96.21-1.41-.74-2.14-.92 2.06-.98.94-3.64-.3-6.12-1.26.97-1.24 2.53-1.77 3.84-.86-.27-2.26-.17-2.96-1.11-.07-.6.99-1.56.81-2.12-.26-.81-1.51-.27-1.88-.11-.39.17-.55.87-.76 1.31-1.91.35-3.93 1.31-5.89 1.14-1.57-6.77 8.34-7.72 4.23-9.89-.65-.34-1.77-.47-2.51.65-.7 1.06-.8 2.12-1.6 2.77-1.85-1.16-3.54-1.7-5.29-1.68.17-.4-.26-1.15-.17-1.61.53-1.28-.44-3.02 1.15-4.35 2.93 2.21 7.31 2.74 9.97.91-3.06 2.1 3.31-4.51 2.97-6.17-1.03-4.97-5.16 3.16-7.63 2.53 0-2.76 2.58-4.06 3.49-6.19-.53-1.31-3.62-1.22-4.37.73-1.92 4.94-3.04-2.76-5.39-3.68-.07-1.61.07-3.22.15-4.82.79.5 1.47-.2 1.71-.8.22-.55.15-1.05.2-1.5l.22-1.96c2.67.18 5.94-.25 8.52 1.39s.3 6.31 2.12 7.72c1.77 1.11 7 1.91 7.46 5.04.31 2.1-2.05 5.95 1.63 7.52.72.31 2.29-.67 2.72.22 1.07 2.2-3.29 8.36.1 9.14 1.41.33 2.79-1.9 4.08-.98Zm-8.04-.2c.29-2.92.33-4.41-.17-6.42-2.52-.44-4.78-.75-7.1.07-.56 2.34-.61 4.17-.11 6.49 2.48.37 4.73.55 7.38-.15ZM497.91 5.41c.32.53.29 1.5.81 1.92.05 1.01-.44 2.79.92 3.02-.07.3.02.69.03 1 .02.52.36 1.06.93 1.02l.04 1c.16.45.46.83.88 1.06.04.33-.05.68 0 1.01.34 2.07.2 4.3 2.15 6.36 1.77-3.49 2.69-6.41 3.17-9.53.04-.26.11-.59.05-.84 1.13.31.77-1.38.99-2.04.85-1.7 1.11-3.88 2.87-4.89 1.01-.11 2.02-.08 3.02-.03.79.04 1.25.55 1.82.99l-.49 22.75c-1.29.1-2.46.29-3.74-.17.28-4.37.72-8.73.02-14.1-3.28 3.12-3.8 7.47-4.55 11.35-.23 1.22-1.72 3.01-2.68 3.44-1.38.61-2.76-1.66-3.58-2.36-.87-4.85-2.84-9.24-4.43-14.23-1.2 5.89-.97 10.99-.53 16.09-.88.47-3.69.96-3.71-.72l-.19-20.05.06-1.18c.13-.67.72-1.36 1.12-1.85 1.72.04 3.43.31 5.02.97ZM746.23 29.19l-.48 2.06c-.67-.05-1.35-.02-2.02.04-.65-.24-1.5-1.02-1.48-1.8.14-5.09.22-10.03-.02-15.18-2.69 5.57-4.61 10.63-5.61 15.93-1.32 1.13-3.34.48-4.78.1-1-5.33-2.69-10.55-5.1-15.97-1.56 3.66.57 14.93-1.37 16.31-5.69 4.06-1.43-17.74-3.18-21.48l.44-1.81c1.33-.53 4.47-1.6 5.61.24 2.69 4.34 2.46 9.43 5.71 13.8 3.38-4.39 5.2-9.42 5.96-14.18.26-.11.76-.46.84-.75 1.09.18 4.55-.49 5.04.91l.42 21.76ZM767.86 29.43c-.71.26-1.41.57-2.08.92-4.46 1.67-9.29 1-13.99.92-.25-.34-.79-.49-1.01-.85l.29-23.34c8.42.16 15.58-2.11 17.29 5.25.39 1.68-.45 3.63-2.19 5.6 3.56 3.24 3.91 7.66 1.7 11.51Zm-4.83-18.25c-2.13-.8-6.39-1.66-7.72.06-1.09 1.41-.56 4.15-.01 5.19.38.72 7.54 1.47 8.82-1.07.58-1.15.79-3.47-1.08-4.18Zm-7.1 16.2c.57-.15 1.15.03 1.72.03l6.19-.04c1.2 0 .93-1.44.95-2.04l.07-1.92c.02-.53-.32-1.03-.9-1.07-.1-.3-.04-.64-.1-.95-1.35-1.96-4.1-1.13-6.16-1.07l-1.82.05c-1.89 1.41-1.97 5.7.05 7.01M3.52 218.12l12.25.41c.92.55 1.86 1.26 2.86 1.68 1.79 2.77-1.33 6.53-.86 8.75.63 2.98 3.63 5.89 2.11 9.3-.67.88-1.84 1.61-2.13 2.83l-7 1.19H8.78l-1.02-.01c-1.83 0-4.33-.18-5.9-.96v-22.94zm10.73 4.2c-2.26-1.24-6.67-1.61-8.11.07-1.14 1.33-.38 3.97.32 4.82s6.48 2.13 8.52-1.08c.5-.78 1.19-2.75-.73-3.8Zm.7 15.77c1.73-2.32 1.54-4.94-.45-6.53-2.95-.53-5.54-.65-8.39-.05-.57 2.35-.56 4.27-.09 6.61 2.91.52 5.49.5 8.93-.03M57.68 217.6c.88.69 2 .87 3.09.98l.93.1c-.36.78.54.68.98.75.91 1.42 1.97 2.74 3.1 3.99l.04 1.09-.09 1.78c-6.06.4-3.37-5.69-10.31-4.88-4.88.57-7.33 8.4-4.27 14.62 1.33 2.7 4.17 3.84 6.84 3.23 2.37-.54 4.42-2.82 4.51-5.66-1.62-.61-2.86-.49-4.38-.82-.99-.21-1.49-1.17-1.19-1.87.21-.48.92-1.26 1.91-1.26h6.97l.91 1.7c.06 1.34-.07 2.69-.07 4.03v2.97l-.02 1.02c-.05 1.89-1.07 2.85-2.87 2.86.07-.84-.37-2.04-1.45-1.68-.71.24-1.35 1.04-1.58 1.72-.61 0-1.22.26-1.83.22-1.77-.09-3.54-.05-5.31-.14l-1.99-.09a12.2 12.2 0 0 0-3.98-3.76c-.16-.45-.77-.78-.89-1.24-1.56-6-.91-11.74 2.23-17.08 1.33.04 2.51-1.5 3.77-1.71 1.06-.18 2.25-.08 3.1-.89h1.83ZM603.7 5.44l1.09.02c1.3.02 1.97 1.19 2.9 1.86 1.39 5.15 4.66 9.52 7.87 14.66 1.53-5.32.67-9.46.3-13.76.24-.92-.06-2.63 1.44-2.73.95-.06 1.75.32 2.43.85.11 4.09-.21 8.18.26 12.24.21 1.85.09 3.74 0 5.6-.05 1.12-.19 2.24-.09 3.37.05.61.03 1.23.05 1.84-6.01 3.55-8.53-11.03-13.76-15.18-1.34 2.57-.53 4.55-.64 6.36-.17 2.68.43 5.62-.34 8.41-.31 1.15-2.96.77-3.24-.26-.16-.59-.44-1.33-.47-2.22.01-4.92.87-10.33-.51-15.06 1.51-3-.39-6.05 2.69-6.01ZM10.78 323.42c-.52-.58-.77-1.89-1.59-2.05-1.67-.32-1.63 1.57-2.51 3.02.16 1.25.03 3.36-.38 5.05-.28 1.19-1.28 2.57-4.16 2.34-.38-7.63-.29-14.69-.05-22.52.03-1.11 3.26-1.07 3.69-.05.97 2.33.3 4.64 1.26 7.37 3.59-1.67 7.83-10.94 12.81-7.33l-7.63 8.24c2.08 4.89 5.29 8.51 8.49 13.2-2.21 1.74-5.08.86-6.54-1.56-1.17-1.94-1.75-3.88-3.39-5.71M711.84 6.46c.27.06.63.07.91.04.43 1.3 1.65 2.06 2.99 2.15.67 2.06 2.07 3.76 2.88 5.76-.12 2.37.42 5.14-.14 7.86-1.51 7.27-8.46 10.58-14.88 8.27-.3-.11-.76-.21-1.08-.19-5.85-5.89-7.44-15.08-1.37-21.57 2.83-3.03 7.16-3.12 10.69-2.32m3.06 13.36c.34-4.66-1.61-9.8-6.24-10.19-5.46-.46-7.57 5.04-7.25 9.74s2.27 8.23 6.83 8.21c3.42-.02 6.31-3.05 6.66-7.76M674.84 10.35c.24.49.85 1.37.98 1.9 1.2 4.77.68 9.56-.99 14.17-.99.52-3.04 1.8-3.19 3.04-3.85 1.99-7.99 1.55-11.89-.18-.02-.91-1.65-1.34-2.13-1.85-2.26-4.2-3.32-9.58-1.65-14.51 1.54-4.52 4.88-7 9.25-7.42 3.57-.34 7.12 2.35 9.61 4.86Zm-13.98 2.18c-1.05.33-.46 1.5-1.06 2.8-1.65 3.62-.6 8.46 2.99 11.04 1.68 1.21 3.94.94 5.63.34 1.48-.53 2.86-1.88 3.2-4.47.04-.33.05-.87.27-1.75 1.23-1.66 1.7-4.17-.18-6.19-.29-.31-.47-1.03-.96-1.85-1.07-1.82-2.51-3.32-4.59-3.34-2.28-.02-4.37.63-5.31 3.43ZM83.66 308.58c2.14 1.55 6.1 1.11 7.46 4.35 2.07 4.95 2.47 12.08-1.16 16.76s-13.53 3.71-15.68-.73c-3.51-7.25-2.25-13.9 2.33-18.69.3-.31.89-.37 1.16-.75 1.43.08 2.95 0 4.1-.94h1.8Zm5.64 14.62c.72-3.35-.26-6.08-1.74-8.12-1.38-1.89-3.93-3.62-6.79-2.53-5.1 1.94-5.68 8.66-3.41 13.12 1.44 2.82 4.01 4.21 6.78 3.69s4.41-2.63 5.17-6.15ZM567.68 5.32c2.06.09 4.11.07 6.17.04.59 0 1.24-.11 1.83 0 1.23.23 2.84-.34 4.02.16 1.76.76.97 2.91.07 3.86 2.24-1.26-10.57-.82-11.15.05-.71 1.06-.59 3.36-.12 4.9.43 1.43 2.81.65 4.13.77l3.01.28 1.23.03c.8.02 1.58.08 1.96.57.67.85-.05 1.98-.53 2.39-.43.38-2.17-.19-2.44.34-2.02.2-5.39-1.23-7.09.57-1.22 1.29-.52 4.68.02 6.06.33.86 1.65-.05 2.03-.1l7.85.58c1.71.13 2.44 1.61 1.77 2.92-.33.65-1.8.59-2.6.72l-9.24-.09c-1.2-.13-2.82.33-3.94-.37-.79-.5-.9-2.49-.81-3.48.51-5.79.61-11.63.1-17.43.02-.88.22-1.99.82-2.41.98-.68 2.04-.43 2.93-.39ZM549.92 5.27c.77-.01 2.01-.13 2.72.14 1.03.39 2.09.69 3.14 1.01s1.76 1.77 2.91 1.89c2.28 5.68 2.7 11.61.1 17.22-.47.53-1.69 1.12-1.97 1.84-.51.09-1.34.23-1.14.92-1.54.45-3.99 1.13-5.75 1.09l-7.26-.07c-.34 0-.7-.21-1.04-.16-.57-7.74.08-15.43.21-23.73zm-4.48 7.12c.24 1.01-.46 2.05-.38 3.75l.44 9.41c2.84-.06 5.96 1.07 8.27-1.23l.93-.93c2.77-2.76 3.74-9.23.03-12.06-.18-.13-.56-.38-.92-.93-1.45-2.18-7.13-2.1-8.04-1.46-.61.43-.36 1.7-.34 3.44ZM42.71 236.41c-.11.6-1.11 1.18-1.1 1.9-.79-.29-.86.49-.91 1.02-.87.59-2.12 1.27-2.92 2.02-1.22.75-2.61 1.09-4.02 1.23h-2l-1.06-.24-1.94-.22c-.22-.39-.61-.63-1.05-.7-1.32-1.29-2.66-2.57-3.91-3.94-1.46-4.69-1.78-9.57-.08-14.21.1-.26.03-.59.15-.84.87.47.91-.41.92-.99 1.04-.79 2.59-1.66 2.99-3.03 2.45-.01 5.49-1.25 8.15-.12 7.45 3.15 8.07 11.09 6.77 18.12Zm-11.8 2.14c.28.05.58-.02.87 0 .61.85 1.59.86 2.41.92 1.56.1 2.02-1.3 2.61-2.15.51-.74 2.46-1.82 1.86-2.94 2.18-3.96 1.01-10.06-3.23-12.65-2.31-1.41-5.27-.11-6.66 1.16-3.4 3.09-3.47 14.72 2.14 15.65ZM65.71 331.41c.22-1.29-.12-2.68-.03-3.98s.01-3.34-1.75-4.29-5.79-1.6-7.27.07c-1.71 1.92-.53 5.24-.94 7.29-.21.3-.48.81-.89.87-.66.09-1.37 0-2.03-.07-1.63-.16-.85-19.18-.8-21.71 4.29-1.69 13.82-1.57 16.38 2.79 1.73 2.95-1.56 5.75-1.04 8.44l2.05 10.6c.22 1.15-2.93.62-3.68 0Zm-1.69-18.61c-3.03-.78-5.43-.78-8.12-.32-.53 2.46-.2 4.33.42 6.72 2.94.8 9.39.72 9.42-3.21 0-1.12-.03-2.75-1.72-3.19M309.56 239.43c.61-.26.97-1.23 1.71-1.12 1.97.3 4.97 5.59 7.57 2.2 1.25-1.63 2.01-3.62 1.8-6.13-2.81 1.15-6.51 2.14-9.01 0-3.6-3.08-2.93-8.25-1-11.87 2.98-2.91 8.83-3.88 11.56.36 3.85 5.99 3.26 15.03-1.51 20.11-1.94 2.06-5.45 1.91-7.46 1.35-2.13-.59-3.41-2.73-3.66-4.91Zm10.5-11.57c-.09-3.47-2.27-4.85-4.64-4.25-1.89.48-2.78 2.45-2.69 4.81s1.79 4.31 3.7 4.52c2.41.26 3.7-1.96 3.63-5.07ZM268.86 220.47l1.74 3.22c.55 1.01.38 2.01-.35 2.44-1.82 1.07-3.83-4.7-7.57-2.37-1.57.98-2.45 3.08-1.69 5.59 4.42-2.44 7.69.04 10.69 2.98-.03.32.01.65 0 .97 0 1.05.1 2.11.04 3.16-.08 1.26-.16 2.52-.17 3.78-.94-.48-.86.57-.9 1.12l-3.92 2.86-1.06.11c-2.75.29-7.32-1.38-8.75-4.08-.82-4.39-.58-9.32-.08-13.71.21-1.89 2.1-3.45 2.85-5.14.25-.56 1.52-.74 1.4-1.66 2.66-.04 5.34-.47 7.78.71Zm-4.54 20.67c3.13.05 3.79-3.29 3.7-5.25-.09-1.85-.77-4.22-3.33-4.34-2.93-.15-4.11 2.22-4.18 4.37-.07 1.98.64 5.17 3.81 5.22M792.75 7.6c-.1.62.61 1.32.88 1.8l-.06 1.04c.39.92.91 1.8 1.22 2.76 1.41 4.41 2.61 9.01 5.02 12.98l.98 4.55c-1.48 1.51-3.69.98-4.86-.41-.19-.22-.1-.67-.24-.93 0-.86-.79-1.4-1.1-2.08s-.13-1.55-.76-1.77c-1.25-.43-6.87-.89-8.43.69-.84.85-1.08 2.72-1.51 4.15-.25.26-.89.69-1.05 1.02-6.96.8.28-6.32-.08-11.04.23-.82 1.45-1.74 1.12-2.9 1.05.17.8-1.42.99-2.1.08-.29.09-.7.04-1 1.88-1.29 1.81-3.81 2.02-5.91.37-.18.54-.76.89-.99 1.64-.06 3.29 0 4.93.13Zm.38 13.59c-.98-4.01-1.14-6.56-2.99-8.98-1.73 3.35-2.35 5.96-3.15 8.97 2.12 1.04 4.18 1.26 6.14.02ZM104.77 218.48c1.75.76 4.38 1.67 4.75 3.16 1.54 6.16 2.39 12.37.27 17.79-1.43 3.65-6.38 3.73-8.96 3.61.34-.8-.61-.61-1.03-.67-.31-.26-1.14-.94-1.27-1.02-4.22-6.62-3.22-14.38-.6-21.02 1.14-.11 2.03-1.25 2.83-1.83 1.72.11 3.15-.38 4.01 0Zm-1.5 3.32c-4.9-.08-5.48 17.31.02 17.74s5.2-17.66-.02-17.74M304.95 222.54c1.17 2.9 1.36 6.06-1.24 8.83 2.33 2.49 3.51 5.31 2.9 8.22-.42 2.01-2.3 3.51-3.88 4.62-.24.17-.76.21-1.05.23-.91.06-1.85.17-2.76.09l-3.16-.29-2.98-1.8c-.11-.5-.14-1.52-.9-1.13-.07-.59-.1-1.2-.12-1.8l-.1-3.28.07-1.66c1.04-1.19 2.06-2.4 2.94-3.85-.76-.48-1.2-.53-1.6-.61l-.34-1.66c-.39-1.9-.54-4.29.78-5.9 1.42-1.74 3.49-2.84 5.72-2.92s3.83 1.77 5.73 2.9Zm-8.16 1.54c-1.96 1.57-.87 4.18.37 5.37s2.86.61 3.94-.24c1.63-1.28 1.73-3.78.88-4.84-1.14-1.41-3.64-1.53-5.19-.29m.09 9.93c-2.4 1.83-1.81 4.63-.78 6.03s3.74 1.69 4.97.89c1.75-1.14 2.74-4.32 1.6-5.91s-3.83-2.51-5.79-1.01M529.71 4.47c2.2 3.26 3.97 9.95 5.79 13 .55.92 1.1 2.92 1.41 3.95.7 2.36 1.34 5.32 1.9 7.73-2.25.46-4.62-.15-4.99-2.65-.33-1.27-.46-2.71-1.27-3.3-1.28-.93-3.24-.72-4.72-.82-2.87-.19-4.74.74-4.9 3.15-.06.92-.5 2.1-1.07 2.59-.92.79-2.17.39-3.08.38-.49-5.47 5.95-16.97 7.13-23.1 1.23-.13 2.51-1.04 3.82-.93Zm1.79 14.63c-.48-3.06-1.42-5.43-3.23-8.7-1.34 2.69-2.76 5.34-2.63 8.75 2.51.47 3.98.39 5.86-.06ZM115.82 309.45c1.33-.06 14.58-.73 13.05 1.76l-.26 2.07-4.84.25c-1.73.09-3.83-.9-6.16.08-1.56.65-1.07 4.33.18 5.29 1.32 1.01 3.27.3 4.8.23 1.19-.05 2.48.29 4.28.39 1.18.07 1.08 1.6.87 2.33-.11.36-.75.4-1.03.72-2.37.54-4.89-.34-7.77.48-1.43.4-2.66 4.4-1.39 5.48 3.34 2.86 12.15-2.05 12.07 3.88-.67.19-1.28.52-1.84.91-1.35.04-2.71.15-4.05.03l-1.87-.18c-.43-1.3-2.28-.55-3.31-.54-1.32-.07-2.97.3-4.14-.4s-.68-2.6-.71-3.78l.03-3.17-.06-1.76.08-12.28c.25-.59.46-1.36 1.04-1.75l1.02-.05ZM144.87 225.26c-1.62-.25-2.75-1.69-4.49-2.61s-3.64-.21-4.41 1.3c-.61 1.2-1.48 2.94-.51 4.57 3.74-1.71 7.59-1.47 9.26.77l.83 1.11-.02 1.06c.59 2.24.67 4.57.3 6.85-.02.39-.16.78-.16 1.17 0 .31-.05.66 0 .96-3.63 3.03-8.23 4.05-12.18 1.24l-.88-1.09c-.15-1.86-1.14-3.53-1.87-5.15.02-1.39-.21-3.37-.01-4.78.39-2.83 1.21-5.63 2.17-8.3.06-.04 6.51-7.36 11.33-1.62 1.35 1.61 1.76 3.23.63 4.53Zm-6.4 14.82c3.43.28 4.45-3.03 4.3-5.19-.16-2.4-1.82-5.07-4.89-4.36-2.48.57-2.97 3.34-2.79 5.26.13 1.45.86 4.08 3.38 4.28ZM148.62 311.43c.92 1.17 1.41 3.42 3.05 4.1-.21 1.02-.67 2.03-1.6 2.21-1.22.23-2.15-.69-3.11-.72-.06-2.28-2.49-4.23-5.2-3.86-4.82.65-6.77 5.24-6.06 9.33.16.92.3 1.97.92 2.67-.09 2.61 2.09 4.45 4.84 5.04 2.39.51 4.97-.92 5.31-3.67 1.03-.86 3.7-3.32 4.32-1.11 1.33 4.76-4.29 5.92-6.46 8.03-4.03.22-8.93-.36-11.11-4.56-.95-1.83-.29-4.31-1.81-5.47.43-1.14.1-2.74.22-3.93 1.05 0 .6-1.54.81-2.22.26-1.2 1.07-2.54 1.11-3.8 1.51-1.14 3.41-1.92 4.23-3.71 3.64-.4 7.28-.16 10.53 1.66ZM648.83 6.51c-.01 1.01 1.75 1.3 2.02 1.98.42 1.05 1 2.32 1.25 3.95.17 1.1-1.33 1.39-1.83 1.29-2.49-.51-2.67-4.67-7.18-4.85-2.02-.08-4.3 1.04-5.58 3.3-2.39 4.23-2.04 10.25 1.59 13.59 1.89 1.74 4.99 1.67 6.89.54 1.57-.94 2.46-2.96 2.65-4.91l1.9-.6c.74.06 1.52.4 1.71 1.18.1.41.22 1.1-.12 1.77l-2.39 4.7c-.15.34-.75.5-.97.82-2.89 1.12-5.96 1.37-9.03 1.09l-3.91-1.97c-1.47-2.25-2.07-5.03-3.78-7.08.39-1.65-.2-4.25-.21-5.87 1.38-3.29 2.81-6.75 5.38-8.28 4.01-2.4 7.83-1.79 11.63-.64ZM243.71 219.41c1.01.04 2.08-.12 3.09 0 1.65.2 3.41.24 5.25.73 1.05.27 1.1 1.9.6 2.4l-1.02 1c-2.07.14-4.29-.53-6.88.07-1.37.31-1.51 4.58-.29 4.45 4.56-.59 8.42.8 9.25 5.53.49 2.8-.12 5.46-1.06 7.8-1.04.73-2.33 1.64-2.91 2.76-2.71.51-5.43.12-7.99-.85-.18-.89-1.61-1.61-2.22-2.18.02-1.07-.44-2.58-.06-3.31 2.14-4.09 2.77 3.79 7.75 2.75 2.39-.5 3.05-2.52 2.82-5.18-.13-1.49-.47-2.83-1.28-3.39-3.23-2.25-5.91 1.37-8.91 1.21-.3-2.23-.03-4.48.12-6.71 1.19-1.75.76-3.96 1-5.98.79-.24 1.81-1.13 2.75-1.09ZM183.76 219.13c1.49.15 2.28.4 2.99.37.59.39.87.78 1.16.85 3.11 4.62 2.47 10.08-1.92 13.26-2.38 1.72-4.48 3.33-6.35 5.54 3.68 1.27 9.23-.46 10.1 1.82 1.65 4.32-10.96 1.79-14.69 2.16.01-1.23.15-2.23-.26-2.72 3.17-7.31 15.36-10.69 10.95-16.61-1.3-1.74-4.26-2.22-5.69.06-.78 1.23-.56 2.97-1.49 3.74-.69.56-1.89.32-2.73.44-1.17-2.56-.21-5.58 1.34-6.82 2.04-1.63 4.38-2.3 6.59-2.07ZM203.61 219.33c1.7 1.47 2.27 3.58 3.51 5.27.47 2.05-.6 3.84-2.32 5.83 3.61 3.19 3.36 7.3 1.92 11.12-2.71 2.17-5.64 2.62-8.97 2.55-1.75-1.72-4.59-2.65-5.09-5.7-.26-1.59.04-2.83 1.54-2.91 2.48-.13 1.98 5.2 6.03 4.98 2.15-.12 3.7-1.52 3.8-3.61.21-4.69-5.29-3.77-5.47-5.96s4.94-1.66 4.91-5c-.02-1.62-.99-2.89-2.4-3.29-4.2-1.2-4.51 4.03-5.85 4.5-.54.19-2.27.28-2.27-.71.02-2.79 1.8-5.1 3.33-6.07 2.3-1.45 5.06-1.05 7.32-1.01ZM127.84 221.38c.02.76.54 1.49.86 2.14l-1.03 6.94c-1.65.82-2.83 2.28-3.85 3.78-2.29.52-4.23 2.06-5.27 4.88 3.61.66 5.86.08 8.32.08l1.91.24c-.1.21-.04.6-.02.85.03.62-.23 1.31-.14 1.92-4.49 1.03-9.13.31-13.71.71l-1.48-.59c.22-8.67 8.92-9.14 11.09-15.07.94-2.56-.23-4.7-2.29-5.13-4.99-1.04-4.22 4.67-6.06 5.25-.69.22-1.99.02-2.17-.53-.87-2.79 2.91-6.47 3.81-8.48.25.03.54.12.79.1 3.44-.3 6.68.55 9.24 2.91M47.83 317.6c-1.29 8.41-10.72 3.98-11.94 6.48-.85 1.75.25 6-.79 7.04-.6.6-3.72.8-3.77-.06l.28-21.8c4.12-.76 8.03-.75 11.97.17 3.68.86 4.73 5.02 4.25 8.17m-12.19-1.05c-.17.53.78.98.92 1.83.13 1.35.46 2.1 1.72 2.1 2.33 0 6.08-1.83 6.59-4.64.32-1.75-.93-2.83-3.1-3.58-1.31-.45-2.83-.1-4.97.09-.68.06-1.88-.16-2.01.56-.24 1.31-.07 2.45.86 3.64ZM93.6 242.23c-1.87.35-3.79.38-5.69.28-1.43-.07-2.86-.15-4.29-.02-1.32-.06-2.86.25-4.08-.31-1.34-.62-.77-2.39-.77-3.57.99-.19.97-1.4 1.12-2.21 1.63-1 2.93-2.47 3.94-4.07 3.67-1.14 7.36-5.13 5.21-9.11-1.12-2.08-3.81-2.1-4.92-.91s-2.34 3.34-1.74 4.99c-1.13.12-2.86.57-3.31-.65-.39-1.05-.14-2.2-.28-3.21 1.57-1.89 3-4.3 4.86-4.71 2.91-.64 6.13-.4 7.77 1.91 7.1 9.97-8.31 14.7-7.53 17.51.67 2.41 6.86.01 8.99 1.32.72.44.76 1.78.72 2.77ZM233.63 220.5c1.21 3.62-2.09 16.03 2.74 14.11l.39 1.64c-1.44 1.72-3.82 3.6-2.89 5.97-.11.44-.61.99-1.06 1.12l-1.18.12-1.31-1.29c.04-.94.28-2.06.03-3.07-.32-1.26-1.84-.6-2.73-.77-2.23-.42-4.47-.29-6.72-.23-1.59-5.57 6.66-11.24 7.68-16.69.6-.49 1.28-1.34 2.08-1.65 1.18-.45 2.13-.04 2.98.74Zm-3.92 13.9c1.08-2.52.94-5.72-.06-8.23-2.93 2.87-4 5.15-5.1 8.22 1.36.63 4.28 1 5.16.01M364.58 304.19l-16.4-.09c-.38-2.15-.39-3.92-.4-5.63l-.02-8.27c0-.94.43-1.98.22-2.88l16.71-.02zm-2.39-2.83c.3-4.35.55-7.49.06-11.56-3.42-.07-9.07-1.72-11.38.51-1.86 3.14-.39 7.72-.1 11.07 3.98.53 7.11.2 11.43-.02ZM175.73 251.47c1.54-.12 3.57-.1 5.06 0 .77.05 2.76-.28 2.99 1.08.35 2.09.51 4.08.5 5.79-.03 3.13-.15 6.15-.56 9.94l-16.74-.49c.45-5.8 1.07-10.59.79-15.45 2.12-1.35 5.45-.66 7.96-.87m6.13 13.98-.11-11.02c-4.2-.47-7.84-.74-12.03-.26-.43 4.28-.77 7.91.49 11.67l11.64-.39ZM163.44 242.84c-1.53-4.67.64-11.22-1.22-15.87-.93-.79-5.31-.41-4.42-2.61 2.61-1.94 5.48-4.01 9.06-5.41.78 7.81.27 14.29.6 21.46.05 1.13-.8 1.82-.85 2.37s-2.93.79-3.17.05ZM684.64 7.42l.02 18.77c2.73 1.02 5.09.29 7.23.28l2.86-.02c.69 1.19.91 2.57.98 3.93-1.59 0-3.19.42-4.78.24h-2.38l-3.81-.05h-2l-2.29-.29-.14-22.61c.79-.56 1.24-1.62 2.75-1.27.56.13 1.08.31 1.55 1.03Z" class="cls-1"/>
    <path d="M207.7 268.48c-1.9-.37-4.97.35-5.39-1.2-.58-2.15-.38-4.35-.36-6.09l.11-9.52 16.54-.05c.31 5.71.33 10.97-.19 16.74zm8.6-2.73c.21-4.43.51-7.79-.28-11.49-4.42-.53-8.06-.62-12.14.07-.11 4.32-.19 7.97.79 11.73zM87.63 284.39l12.17.3c.29 5.81.84 11.35-.07 16.59-.49.19-1.59.14-2.11.07-4-.96-8.77-.51-13.64-.44-.4-2.97-.4-5.89-.32-8.67.07-2.36-.37-4.93.47-7.44.84-.53 2.72-.43 3.51-.41Zm10.55 14.06-.37-11.22c-4.12-.5-7.83-.72-11.81.05 0 4.27-.75 7.7.22 11.49 4.34.26 7.85.4 11.96-.33ZM168.77 313.89c-8.52-3.78-3.58 13.15-5.25 19.31l-1.64.18-1.91-.2-.06-.86-.12-1.06c-.1-.91-.02-1.84 0-2.76.04-1.71-.15-3.46.03-5.17.21-1.97.25-3.93-.18-5.88-.21-.94.36-2.29-.3-3.18-1.23-1.64-5.61.63-5.57-2.39.02-1.09.49-1.5 2.06-1.52l10.09-.11c1.3-.01 3.39-.93 4.4-.07.8 1.21.5 2.5-.2 3.03-.33.25-.9.38-1.36.68ZM100.6 254.38c-1.04 4.29.09 8.61-.47 13.4l-15.35-.24c-1.12-.02-1.43-1.78-1.37-2.19l.4-13.92 16.28.08c0 1.37.67 2.22.51 2.87M98 265.1c.33-4.52.55-7.68-.27-11.25-4.07-.45-7.54-.81-11.48-.14-.6 4.03-.46 7.56-.19 11.57 4.08.42 7.49.36 11.93-.18ZM447.67 304.2c-7.55-.55-18.29 2.34-16.17-3.61.4-2.79.4-5.61 0-8.4-.49-1.95-.08-3.66 1.31-4.99l15 .56-.15 16.44Zm-1.92-3.03c.28-4.73.73-7.61-.17-11.53-3.34.19-8.82-1.52-11.1 1.22-2.16 2.59-.45 7.17-.55 10.25 4.17.91 7.73.99 11.83.06ZM288.12 225.22c-.11.31-.43.77-.41 1.09-2.49 1.35-3.99 4.49-4.09 7.06l-.04 1c-.35.27-.75.59-.92 1.02-.37.96-.53 1.99-.82 2.98-.55 1.91-1.36 3.79-1.31 5.81-.9.16-1.54.74-3.31 1.48-.83-2.2.07-4.2-.17-6.2.97.04.64-1.44.83-2.08.09-.3.07-.69.04-1 .89-.24.94-1.23.97-2.01 0-.3 0-.62.03-.92.77.12.52-.71.8-1.07.41-.54.44-1.54.87-2.01 1.57-1.66 2.93-3.46 4.31-6.25-2.2-1-10.44.28-10.89-1.28-1.62-5.64 9.97-1.65 14.85-1.76.63 1.58-.41 3.21-.73 4.12ZM46.62 268.31c-3.91-1.31-7.59-.66-11.73-1.03-.18-4.63.33-8.84-.06-12.96-.11-1.16.07-2.77.92-2.79 5.45-.11 10.32-.39 15.78-.02-.03 5.4.29 10.39-.3 15.62-.75 1.12-3.52.84-4.61 1.18m2.31-3.85c1.63-3.31.1-7.84-.03-10.86-4.44-.22-7.84-.98-11.88-.3-.62 4.3-.39 7.8.15 12.11 3.54-.33 8.81 1.22 11.76-.95M465.78 255.27c0-.32.24-.67.18-.99l16.76.07c0 5.68.38 10.6-.86 15.97l-15.98.03-.1-15.09Zm14.32 12.46c.29-4.16.55-7.52-.33-11.23-4.16-.71-7.8-.64-11.79.09-.36 4-.3 7.48.03 11.27 4.33.36 8.1.79 12.09-.13M776.67 7.15c0 .71 1.04 1.38.97 2.24-.08 1 .16 2.02.02 3.02l.07 1.93c.03.68.09 1.4 0 2.08-.18 1.29-.04 2.58-.07 3.87-.09 3.67-.42 7.34-.21 11.01l-1.59.1c-.37.02-.81.04-1.17-.06-.67-.18-1.27-.58-1.81-.99l.18-22.03c.01-1.55 2.73-1.32 3.61-1.18ZM280.8 254.4c1.49 2.74.7 5.93 1.01 8.91.22 2.1-.14 4.27-.26 6.89-5.84-.21-11.15-.34-16.52.04.13-.57-.18-1.21-.19-1.8l-.02-2.13c.52-3.96-1.08-8.25.86-11.94l15.11.02Zm-1.34 13.47c.16-4.51.51-7.6.03-11.4-4.39-.42-8.24-.4-12.54.04-.26 4.07-.36 7.51-.1 11.62 4.32.64 8.17.37 12.61-.26M129.91 251.28c1.17-.02 2.91-.31 3.97.3 1.2.69.82 2.65.95 3.76-.03 2.4-.42 4.88-.06 7.27.3 2-.41 3.27-1.09 4.97l-15.84-.05c-.1-5.61.92-10.37-.03-15.12.28-.35.59-.68.92-.99zm2.72 13.83c.07-4.51.18-7.57-.45-11.18-4.16-.64-7.97-.75-12.23-.33-.46 4.04-.28 7.53 0 11.61 4.4.35 8.23.5 12.67-.1ZM363.94 254.29c.25-.02.74.08.95.21l-.13 15.81c-7.45-1.12-18.16 2.75-17.02-3.85l.02-2.93c.02-3.07-.54-6.33.8-9.66 5.63.07 10.49.9 15.38.42m-1.27 13.79c.11-4.62.28-7.77-.16-11.58-4.26-.57-8.02-.71-12.24.3-.53 3.99-.58 7.76.31 11.38 4.48.02 7.93.31 12.09-.1M267.02 286.81c4.43.54 8.76.47 14.1.3l.69 16.35c-5.58-.87-11.79 1.33-16.97-1.04-.1-1.69-.1-3.39 0-5.08.06-1.03.13-2.05.13-3.08-.27-1.96-.27-3.95-.13-5.92.58-.48 1.2-1.65 2.18-1.53m12.65 14.47c.09-4.82.29-7.94-.29-11.91-4.24-.35-8.11-.26-12.44.18-.35 4.11-.34 7.54 0 11.67 4.36.58 8.3.73 12.74.06ZM184.2 299.42c-.29 2.57-3.02 1.37-4.36 2.01l-11.86.05-.5-16.26c5.54.24 10.16.4 15.95-.34zm-2.47-.37c.37-4.51.54-7.57-.1-11.15-4.07-.52-7.66-.69-11.76-.29-.8 4-.85 7.6.11 11.52 4.09.65 7.73.75 11.75-.09ZM431.78 270.42c-.15-.6-.24-1.21-.28-1.82.47-1.42-.08-2.96.15-4.38.52-3.29-1.25-6.96.97-9.85h15.23l.05 16.03-16.11.02Zm14.15-2.34c0-4.65.34-7.63-.32-11.58-3.55-.33-9.17-1.49-11.47.77-1.33 3.38 0 7.46-.24 10.84 4.21.36 7.65.4 12.02-.03ZM108.65 310.47c-.11.6.16 1.3.13 1.91l-.05 1.11-.13 13.78c-1.03.01-.63 1.52-.85 2.2l-.92 1.9c-.45.2-1.52.3-1.15 1.01-1.59.06-3.46 1.08-5.01.94-1.7-.85-4.02-1.84-4.93-3.35-1.03-1.7.32-3.69.29-5.42.82.66 3.03.06 2.93 1.95-.1 2.05 1.44 3.25 3.27 3.05 7.79-.85-1.58-23.63 6.41-19.07ZM16.69 267.27l-15.87.26-.05-16.19 16.05-.15c.7 5.88.15 11-.13 16.08m-2.28-2.17c.09-4.53.2-7.65-.16-11.22-4.16-.97-8.02-.58-12.47-.4v11.84c4.47.05 8.33.59 12.63-.21ZM398.76 254.54c.17.89-.14 1.94.1 2.82-1.32 3.41-1.1 7.76.18 11.21-.04.43-.45 1.22-.35 1.65l-16.13.09-.12-16.57 16.32.79Zm-2.17 13.36c.09-4.41.35-7.59-.15-11.35-3.95-.7-7.48-.72-11.42.12-.81 3.9-.68 7.45-.18 11.3 4.13.49 7.6.47 11.75-.07M2.8 284.42c5.84.48 11.77-.95 14.03 1.22l.34 14.9-16.4-.16v-15.07c.59-.35 1.27-.96 2.04-.9Zm11.67 14.66c.12-4.95.44-8.2-.05-12.24-4.19-.66-8.04-.77-11.9.03-.67 4.02-.96 7.44-.69 11.55 4.5-.1 8.32-.12 12.65.67ZM315.97 268.36c-.04.92-.86 1.61-2.18 1.63l-13.79.23c-.7-2.93-.14-5.41-.14-7.89s-.88-4.88-.07-8.21l16.26.08-.07 14.16Zm-2.17-.45c.33-4.42.52-7.54-.19-11.46-3.74-1.21-7.78-1.38-11.67-.11-.4 4.21-.27 7.73-.12 11.75 4.16.38 7.73.36 11.98-.18M219.53 223.3c-.71-.37-.72.68-.83 1.12-.29 1.12-.41 2.3-.2 3.45-2.91 1.89-3.09 6.38-3.83 9.64-.27.5-.75 1.07-.91 1.68-.45.35-.76.84-.98 1.36-.16 1.17-.32 2.54-1.07 3.19-1.05.91-2.3.53-3.06-.29-1.14-1.21-.9-2 .24-3.02 2.45-2.53 3.26-6.69 3.81-9.97.44-.71.76-2.17 1.14-2.91.68-1.32 1.52-2.52 1.15-4.16 1.39-.87.7-4.19 2.85-4.67 3-.68 1.99 2.91 1.69 4.58M596.72 6.34l-.08 22.07c-.72.45-1.08 1.42-2.35 1.05-.53-.15-1.27-.23-1.47-1.02l.03-22.03c.46-1.65 3.05-.95 3.87-.07M2.86 280.53l-.17-1.22c1.9-.34 4.33-1.6 4.62-3.89.2-1.54-1.1-2.1-2.03-2.16-2.48-.16-1.17 4.84-4.5 3.43l-.27-1.27c-.28-1.35-1.08-3.35.15-4.52 2.89-2.74 6.84 1.75 10.59 2.24-1.14 2.22-2.95 2.11-3.47 3.9 1.81.96 3.78.7 4.87 2.73-2.76 2.85-6.67 1.46-9.8.75ZM481.01 277.44c1.15.55 2.32 1.59 1.78 3.42-.37 1.24-1.72 1.85-2.98 2.52-.97.1-1.32.74-.21.99l.02.94c-.56-.24-1.54.59-2.11-.09 2.05 2.42-6.07-9.42-3.57-7.89 1.32-.48 2.66 1.39 3.56 1.6 1.34.31 2.51-.63 3.52-1.49ZM22.63 296.25c-.1 1.07.07 2.16 1.07 2.53.83.31 1.84-.1 3.06 1.19-1.4 1.15-5.97 1.81-7.09.08-1.39-2.15.45-4.95.55-6.68.87-.07 2.14-.25 2.35.65.19.85.13 1.59.07 2.23ZM267.75 279.46c-2.92-.47-1.94-3.84-2.05-6.16 1.3-.29 3.5-.56 4.7.51.87.77 2.64 2.73 1.71 3.74-1.44 1.3-2.03-1.58-3.36-2.68-2.11 1.55-.19 3.14-1 4.58ZM476.56 300.66c.26 1.59-.19 3.36-2.01 3.44-.41-.64-.52-1.47-.47-2.09.12-1.52 1.78-.85 2.48-1.35M50.86 275.38c-.1 1-.04 2.02 0 3.02-.79-.28-1.04-1.16-1.66-1.99-.84-1.12.59-1.18 1.67-1.03ZM473.01 303.45c-.84-.14-1.65-.46-2.24-1.09.86-.01 1.71.44 2.24 1.09M268.82 282.35c1.73-1.7 3.84-2.08 5.2-2.1.93-.01 2.86 1.99 2.08 3.25-1.14 1.86-6.67 1.33-7.28-1.15M133.12 278.38c-1.62.92-2.12 3.53-3.22 3.86-1.34.14-2.86-3.48-1.79-4.6.85-.9 3.07-.6 5.01.75Z" class="cls-1"/>
    <circle cx="24.76" cy="279.88" r=".63" class="cls-1"/>
    <path d="M359.54 299.14c-2.36.55-4.28.44-6.68-.12-.56-2.5-.43-4.7.01-7.23 2.29-.46 4.16-.38 6.41.22.8 2.35.71 4.55.25 7.13ZM179.19 263.35c-2.35.43-4.52.29-7.06-.11-.5-2.35-.52-4.29-.08-6.59 2.37-.52 4.25-.36 6.96-.26.57 2.18.39 4.31.17 6.96ZM207.7 257.1c1.73-1.29 5.16-1.16 5.79.02.78 1.47 1.07 5.12-.38 6.15-1.15.81-4.15.7-5.46-.05s-1.65-4.85.06-6.13ZM94.88 289.79c1.14 1.16.96 5.1-.14 6.06-1.16 1.01-4.47.67-5.93-.07-1.31-.66-1.2-4.39.03-5.71 1.08-1.16 4.96-1.38 6.05-.27ZM94.79 262.41c-1.16 1.15-5.3.95-6.35-.31-.98-1.18-.49-4.47.17-5.54.76-1.25 4.32-1.41 5.97-.38 1.38.87 1.38 5.08.22 6.23ZM443.08 299.33c-1.75-.03-5.11.97-6.36-.67s-.37-4.57-.69-6.15c2.6 1.3 4.77 1.32 6.95.5.22 1.88.6 3.76.11 6.32ZM40.49 262.71c-1.67-.44-1.22-4.06-.78-5.77s3.49-1.16 5.04-1.07c2.26.13 1.7 3.2 1.76 5.06.09 2.74-3.03 2.57-6.02 1.78M471.19 259.12c.87-1.32 4.78-1.16 5.92-.39 1.34.9 1.17 4.72.31 6.08-.93 1.46-3.96 1.13-5.39.9-2.04-.33-2.44-4.16-.85-6.59ZM276.74 258.78c.16 2.76.28 4.28-.22 6.32-2.29.64-4.27.69-6.67.14-.77-2.46-.73-4.66-.37-6.9 2.82-.1 4.8-.38 7.26.44M123.02 256.94c.98-1.77 4.77-1.32 5.96-.48s1.08 4.08.51 5.37c-.73 1.68-3.96 1.08-5.36.93-2.09-.23-2.51-3.29-1.11-5.81ZM353.11 258.99c.97-1.52 4.8-1.15 5.94-.39 1.33.88 1.24 4.72.57 6.17-.78 1.67-4.04.72-5.44.66-2.2-.1-2.71-3.89-1.07-6.44M276.34 298.07c-1.33 1.29-5.61 1.24-6.78-.05s-1.24-5.41.16-5.95c1.66-.64 4.71-.56 5.8.25 1.2.89 2.37 4.24.82 5.75M178.46 296.41c-1.08 1.51-5.11 1-6.09-.01-1.11-1.16-1.17-4.96.24-6.18 1.06-.92 4.13-.92 5.88-.17 1.46.63 1.38 4.39-.04 6.36ZM437.16 265.11c-1.56-.84-1.63-5.37-.27-6.22 1.45-.9 4.2-.89 5.25-.36 1.68.86 1.16 3.91 1.02 5.49-.19 2.12-3.5 2.43-6 1.09M5.82 256.2c1.64-1.22 5.13-1.23 5.8-.04.87 1.54.96 5.18-.42 6.26-1.14.89-4.29.71-5.61-.11s-1.42-4.88.22-6.11ZM387.57 258.98c.56-1.34 4.34-1.04 5.54-.43 1.53.78 1.5 4.34.74 6.31-.48 1.26-3.62.73-5.4.42-1.56-.27-2.01-3.56-.88-6.3M5.37 290.01c.67-1.32 4.39-.99 5.67-.44 1.42.62 1.22 4.15.53 5.96-.52 1.34-3.5.74-5.17.55s-2.37-3.44-1.04-6.07ZM305.04 259.1c1.2-1.42 4.95-.99 5.71.19.82 1.27.89 4.52 0 5.6-1.07 1.3-4.3 1.22-5.47.44s-1.84-4.34-.23-6.24ZM308.83 29.83c.63 2.09-15.61 10.88-15.26 10.85-.86.1-15.28-7.95-15.79-10.35-1.79-5.98.06-13.1-.63-19.84L293.24.01c5.09 3.91 11.43 6.22 15.59 10.7.8 5.74.75 13.27.01 19.13Zm-15.44 7.44c4.14-4.24 9.47-4.96 12.47-8.9 1.15-3.91 1.14-11.4 0-15.62-3.03-3.59-9.21-6.72-13.17-8.58l-12.67 7.54c.35 5.59-.97 11.63.4 16.97 3.25 3.63 8.59 5.68 12.96 8.59ZM155.02 30.72l-16.18 10.59-15.86-10.43-.04-20.21c5.39-2.58 10.16-8.05 15.94-9.55 5.57 1.3 10.65 6.72 15.91 9.15l.23 20.46Zm-15.81 6.83 12.42-8.2c.76-5.77.76-11.61.06-17.32l-12.88-8.18-12.41 8.36c-.24 6.13-.38 11.62.2 17.5l12.62 7.84ZM254.86 41.1c-5.76-3.49-10.99-6.39-16.16-10.32-.38-6.9-.22-13.23.04-20.33L254.56.19l15.87 10.38c.39 6.85.45 13.35.02 20.2l-15.58 10.32Zm13.22-12.41c-1.27-5.98 1.11-11.93-1.04-16.29-3.18-3.8-8.68-5.25-12.55-8.59l-13.05 8.14c.48 5.15-1.19 11.45.53 16.46 2.85 4.19 8.84 5.43 12.6 8.94l13.5-8.67ZM40.51 31.32 24.67 41.77 8.56 31.92l-.14-20.61L24.46.98l15.82 10.19zm-4.07-2.19c1.84-4.59.72-12.02.3-16.18-3.65-3.48-8.56-5.52-12.57-8.13l-13 8.72c.81 5.31-1.24 11.97 1.01 16.38 3.34 3.85 8.17 5.53 12.36 8.35 3.46-3.56 9.97-4.29 11.91-9.13ZM232.09 30.88c-5.47 2.69-10.41 7.98-15.88 9.37-5.75-1.18-10.4-6.55-15.92-8.83l-.16-21.01L215.6.33l15.97 9.87.52 20.67Zm-15.97 6.6 13.1-8.54c-.18-5.94.32-11.29-.42-16.79l-13.03-8.23c-3.84 3.24-9.57 4.78-12.56 8.9-1.01 4.32-.88 11.47-.09 15.77 3.2 4.03 8.8 5.63 12.99 8.88ZM116.98 30.62l-15.93 10.61-16.19-9.99.19-20.52L100.46.62l16.28 10.06.24 19.95Zm-15.7 6.91c3.93-3.84 9.75-4.88 12.15-8.97 1.93-4.68.34-10.86.48-15.83l-13.02-8.65-13 8.58c.23 5.46-1.65 15.67 1.99 18.09s6.93 4.46 11.4 6.78M177.74 39.98c-6.08-.17-10.48-6.7-16.02-8.53-.52-7.41-.37-13.35-.11-20.8 5.34-2.87 10.13-8.54 15.76-9.57 5.52 1.34 10.64 6.59 15.86 9.38l.07 20.53c-5 2.44-9.68 7.57-15.56 8.99m-.12-2.57c3.98-3.81 9.67-4.69 12.4-9.09 1.29-3.81.9-11.29.17-15.34-3.29-4.18-8.85-5.51-12.86-9.12l-12.94 8.7c-.15 5.85-.4 11.19.23 16.82zM78.43 31.51l-15.38 9.98-16.47-9.86-.1-20.21L62.43.7l15.8 10.1zm-15.32 6.5 12.54-8.99c-.72-5.18 1.12-11.44-.58-16.03-2.99-4.01-8.64-5.08-12.41-8.65-4.03 3.44-9.61 4.78-12.7 9.05-1.35 3.65-1.51 12 .21 15.62 2.45 5.17 8.93 6.13 12.94 9.01ZM428.84 329.34c.49 1.63-12.21 8.52-11.94 8.49-.67.08-11.96-6.22-12.36-8.1-1.4-4.68.04-10.25-.49-15.53l12.59-8.2c3.99 3.06 8.94 4.87 12.2 8.37.62 4.5.59 10.38 0 14.97m-12.08 5.82c3.24-3.31 7.41-3.88 9.76-6.96.9-3.06.89-8.92 0-12.22-2.37-2.81-7.21-5.26-10.3-6.71l-9.91 5.9c.28 4.37-.76 9.1.31 13.28 2.54 2.84 6.72 4.44 10.14 6.72ZM308.49 330.03l-12.66 8.28-12.41-8.16-.03-15.82c4.22-2.02 7.95-6.3 12.47-7.47 4.36 1.02 8.33 5.26 12.45 7.16l.18 16Zm-12.37 5.35 9.72-6.42c.59-4.52.59-9.08.04-13.55l-10.07-6.4-9.71 6.54c-.19 4.8-.3 9.09.15 13.69zM386.61 338.15c-4.51-2.73-8.6-5-12.64-8.08-.3-5.4-.17-10.35.03-15.91l12.37-8.03 12.42 8.12c.31 5.36.35 10.45.01 15.81l-12.19 8.08Zm10.34-9.71c-.99-4.68.87-9.33-.82-12.75-2.49-2.98-6.79-4.11-9.82-6.72l-10.21 6.37c.38 4.03-.93 8.96.42 12.88 2.23 3.28 6.92 4.25 9.86 7l10.57-6.79ZM218.9 330.5l-12.4 8.18-12.6-7.71-.11-16.12 12.55-8.09 12.38 7.98zm-3.19-1.71c1.44-3.59.56-9.41.23-12.66-2.86-2.73-6.69-4.32-9.84-6.36l-10.17 6.82c.64 4.16-.97 9.36.79 12.81 2.61 3.01 6.39 4.33 9.67 6.53 2.71-2.78 7.8-3.36 9.32-7.15ZM368.8 330.15c-4.28 2.11-8.14 6.24-12.43 7.33-4.5-.92-8.14-5.12-12.46-6.91l-.13-16.44 12.11-7.88 12.5 7.72.41 16.17Zm-12.5 5.17 10.25-6.69c-.14-4.65.25-8.84-.33-13.13l-10.19-6.44c-3.01 2.53-7.49 3.74-9.83 6.96-.79 3.38-.69 8.97-.07 12.34 2.51 3.15 6.89 4.41 10.17 6.95ZM278.73 329.96l-12.46 8.3-12.66-7.82.15-16.06 12.05-7.91 12.74 7.87.19 15.61Zm-12.29 5.4c3.08-3.01 7.63-3.82 9.5-7.02 1.51-3.66.26-8.5.37-12.39l-10.19-6.77-10.17 6.72c.18 4.28-1.29 12.26 1.56 14.15s5.42 3.49 8.92 5.31ZM326.27 337.28c-4.76-.13-8.2-5.24-12.54-6.68-.4-5.8-.29-10.44-.09-16.27 4.18-2.24 7.93-6.69 12.33-7.49 4.32 1.05 8.32 5.15 12.41 7.34l.06 16.07c-3.91 1.91-7.57 5.92-12.17 7.03m-.1-2.01c3.11-2.98 7.57-3.67 9.7-7.11 1.01-2.98.7-8.83.13-12.01-2.58-3.27-6.93-4.31-10.06-7.13l-10.12 6.81c-.12 4.58-.32 8.76.18 13.16zM248.56 330.65l-12.03 7.81-12.88-7.71-.08-15.81 12.47-8.39 12.36 7.9zm-11.99 5.09 9.82-7.04c-.56-4.05.88-8.95-.46-12.54-2.34-3.14-6.76-3.98-9.71-6.77-3.16 2.69-7.52 3.74-9.93 7.08-1.05 2.85-1.18 9.39.16 12.22 1.92 4.04 6.99 4.8 10.12 7.05" class="cls-1"/>
  </g>
</svg>
