<svg xmlns="http://www.w3.org/2000/svg" viewBox="0 0 619.85 704.5">
  <g fill="#000000">
    <path d="M318.9 704.5h-17.94c-.33-1.12-1.39-1.89-2.68-2.63l-38.03-21.93-89.28-51.7-48.69-28.27-7.7-4.5-98.33-57.03-16.24-9.19.03-350.08L291.27 10.15C297.73 6.4 303.12 2.47 309.75 0c4.99.85 7.89 4.07 12.34 6.65l297.76 172.58v349.63l-90.05 52.35-61.44 35.68c-2.15 2.5-4.82 2.85-7.68 4.51L321 702.31c-1.32.77-1.85 1.24-2.1 2.19m145.62-101.73 141.62-82.21-.14-328.55c0-4.1-3.12-6.67-5.76-7.85-2.75-.69-4.26-2.34-6.47-3.61l-22.96-13.12c-4.02-2.3-7.45-4.35-11.38-6.63l-56.29-32.67-13.96-7.96-18.94-10.92-24.03-14.2-23.35-13.5c-7.95-4.6-15.94-8.41-23.57-13.45s-15.58-9.13-23.82-13.59c-3.06-1.66-5.84-3.99-8.93-5.8l-9.51-5.57-20.46-11.53-20.18-11.74c-5.12-2.98-9.43-3.01-14.69.47-6.56 4.34-13.77 8.17-20.76 12.22L248 51.65l-130.73 76.03-89.12 51.83c-5.16 3-10.25 4.52-14.39 9.2l.05 332.09 21.71 12.26 25.21 14.84 53.77 31.15 14.57 8.66 48.78 28.05 37.98 21.98 68.83 39.99 22.12 13.1c2.6 1.54 5.28.6 7.57-.76l21.97-13.11 11.42-6.41 23.97-14 92.81-53.77Z"/>
    <path d="m220.97 382.03-9.68-22.13-12.04-27-12.75-28.27-14.86-34.13c-2.88-6.61-5.26-12.94-9.26-19.04l.2 45.28c.2 43.89 4.18 99.59 21.15 140.08 8.26 19.71 17.65 35.62 37.54 45.09 8.37 3.99 17.25 5.25 26.09 7.33 1.07.25.78 3.9-.5 3.91l-65.87.61c-3 .03-5.32.32-8.32.18-16.24-.79-32.26-.39-48.51-.12-3.06.05-5.24.16-8.55-.1l-11.56-.92c-.94-.07-.58-1.86-.49-2.7.3-2.71 20.35-.85 31.53-22.62 7.62-14.83 11.4-30.56 12.68-47.25.53-6.89 1.72-13.75 1.33-20.71-.32-5.89.57-11.27.7-17.01.39-17.72-.04-34.79-.28-52.46l-.88-65.14c-.08-5.86-.04-11.54-.9-17.29-2.22-14.83 1.26-12.75-8.5-28.31-10.43-16.64-22.03-14.64-25.02-17.69-.64-.65-.56-3.62.94-3.62l101.13.04c-11.05 20.05.27 46.56 8.71 65.99l5.46 12.56c3.04 7 5.46 13.7 8.33 20.75L255 337.09c1.93 4.75 3.76 9.3 6.58 13.9 3.85-3.48 4.2-7.35 5.73-11.48L300 251.62c1.43-3.85 3.11-6.86 4.71-10.31 11.39-24.51 25.18-45.3 55.27-45.91 12.83-.26 25.14 3.1 34.57 12.77s13.74 24.22 13.08 38.31c-1.33 28.27-17.4 71.68-28.74 97.94l-11 25.5c-11.39 26.39-16.12 44.58-13.75 73.39.42 5.15 3.17 10.68 5.91 15.09 14.11 22.74 47.56 23.79 70.64 15.22l13.97-5.19c10.61-3.94 19.91-10.33 28.62-17.49 13.17-10.83 24.01-23.85 28.61-40.49 2.07-7.49.36-17.54-7.57-20.4-4.67-1.69-12.83-1.44-17.66-.03-15.36 4.47-27.52 13.63-40.79 22.71-5.14-5.4 1.94-22.66 4.33-26.25 9.83-14.73 27.3-24.28 44.77-23.33 16.01.88 27.05 11.08 29.88 26.22 4.96 26.52-8.95 50.11-25.81 69.48-15.33 17.61-34.26 30.43-55.34 40.31-39.08 18.31-89.98 14.11-117.54-21.84-24.6-32.09-9.92-89.58 5.22-123.66l19.07-42.93c6.99-15.73 18.23-42.07 21.8-58.29 2.08-9.44 11.3-45.96-9.21-42.91-6.3.94-12.41 3.4-16.63 8.52-8.24 10.01-14.34 20.84-19.09 33.29l-69.01 180.6c-.54 1.42-1.3 1.96-2.03 2.08-1.43.23-2.26-.48-2.91-1.93l-22.42-50.07Z"/>
  </g>
</svg>