<svg xmlns="http://www.w3.org/2000/svg" id="Capa_2" data-name="Capa 2" viewBox="0 0 855.93 185.92">
  <defs>
    <style>
      .cls-1{fill:#fff}
    </style>
  </defs>
  <g id="Capa_1-2" data-name="Capa 1">
    <path d="M358.4.06c.31-.11.72-.01 1.05-.02 3.93-.06 8.09.37 11.97.84l3.01.19c.33.02.67.03 1 .04-1.04 1.84 9.47 2.94 9.99 2.96l1.91.07c-1.1.63 21.96 6.86 21.21 6.81l1.79.1c-.14 1.04 1.41.8 2.09 1.01.95.29 1.99.73 2.99.8l2 .21 1.92.09c-.39.82.6.85 1.09.9.63.06 1.27.07 1.91.07 2.59 2.35 6.68 2.41 10.09 2.93.52.08 1.21.3 1.72.2-.62.72.37 1.61 1.29 1.62l8.09.1c.58 0 1.21.09 1.78 0 1.65-.25 4.12.77 5.1-.87l1-.04 1.01-.21c.64-.08 1.45-.45 1.94-.86.9.44 1.51-1.12 2.12-1.08 1.26.07 2.08-1.74 2.92-2.17 2.97-1.5 4.45-4.62 4.98-7.88.04-.24.09-.54.1-.77l1.93-.14c5.62 4.73 7.91 13.62 4.76 20.45-6.05 13.13-31.99 6.06-42.34 1.17-2.98-1.41-5.77-2.74-9.63-2.53-.57 35.07-1.03 69.46.63 104.18.4 8.24 2.46 15.51 8.05 21.23 1.85 1.9 6.73 5.17 9.21 3.15 4.23-8.26 5.03-18.23 5.08-27.65l.23-46.99c.04-8.05-.45-15.9-2.45-23.62-1.24-4.78-5.47-7.66-7.98-12.3 11.04.29 20.97 1.54 31.35.58 5.03-.47 9.88-.9 15.2-.24-5.23 8.15-10.64 9.78-11 22.79-.62 22.24-.54 44.12.22 66.27.31 8.91 3.46 16.33 10.44 22.31 11.9-5.11 15.92-22.73 16-35.17l.47-79.52c.05-8.24-6.03-21.04-12.69-24.37 2.37-1.63 3.9-.53 5.3-.85 3.1.34 6.21-.07 9.3-.02l17.98.29c1.47 3.75 2.65 8.29 5.91 10.75.04.28-.02.63.09.89 2.74 7.01 7.21 13.08 11.39 19.95 2.52 4.14 5.3 10.21 8.5 13.2.34.4.76 1.34 1.07 1.78.96 3.36 3.21 7.49 5.76 10.03.03.37 0 .76.06 1.13.08.52.41 1.05.99 1.06.11.31-.02.68.04 1l19.01 30.24c.27.44.77 1.24.97 1.72 1.74 4.11 4.67 7.67 7.87 11.5.04-9.96-1.31-18.56-.72-27.48.12-1.91.14-3.93-.05-5.84-.47-4.73 1.01-9.69-.79-14.18-.22-.55-.01-1.32-.1-1.91-.42-2.7.61-5.58-.84-8.09-.25-.43-.18-1.41-.18-1.91 0-1.42 0-2.78-.77-4.01-.29-.47-.11-1.38-.2-1.95-1.16-7.42-4.17-16.5-9.03-21.97-.13-1.12-1.63-2.22-2.08-3.07-1.54-2.95-6.45-7.27-10.06-8.21s-7.08-2.07-10.19-4.61l53.91-.41c15.73-.12 31.12 1.04 46.83-.24 10.84-.88 27.46 1.06 44.25.17 3.62-.19 7.24-1.91 10.4 1.13-10.91 7.84-12.78 26.18-12.32 38.14.37 9.5-.73 18.29.44 28.59 8.29-13.89 16.26-26.99 25.35-39.98 5.17-7.39 9.73-21.35 1.14-27.31l45.06-.03c-1.85 2.92-4.76 2.14-7.01 3.29-7.84 4.02-14.76 8.87-21.07 15.34-12.46 12.77-22.48 27.49-32.49 42.36-.74 1.1-.46 2.63-1.13 3.77 16.27-3.87 31.8 6.05 35.59 22.22l5.12 21.88c1.84 7.84 5.97 13.7 12.56 18.97 8.56 6.84 22.68 6.09 31.24-1.24 10.35-8.86 17.99-26.55 9.49-34.93-5.3-5.23-19.67 3.76-24.9 7.25-4.42 2.95-9.23 5.96-14.83 5.23-4.33-.57-6.2-5.23-5.19-9.46 5.96-25.05 30.54-43.71 35.81-80.9.98-6.94-2.75-10.42-9.57-13.32l31.78-.38c2.51 12.34 7 22.91 10.63 34.41l13.95 44.27c3.53 11.21 7.23 21.63 11.39 32.5 2.74 7.15 4.58 14.59 9.53 20.65 2.55 3.13 6.68 3.92 8.78 8.32l-49.89.03 5.98-8.12c3.86-5.24.9-13.97-.51-20.39-2.65-11.98-6.2-23.9-10.85-34.95.32-1.85-.83-3.38-1.18-5.03-.45-2.1.85-5.37-1.94-6.01.04-.26.02-.59-.03-.84-2.11-10.78-6.36-21.05-9.63-32.02-1.02-3.43-.63-6.85-3.96-10.21l-4.65 16.15c-.08.26.09.59 0 .84-.72-.22-.84.53-.97 1.04-.17.67-.7 1.28-.81 1.96-1.47.77-1.87 2.51-2.15 4.04-.05.27-.07.59-.03.86-2.47-1.75-2.21 9.04-8.79 10.56.65.87 1.05 1.75 1.26 2.74-1.12 1.02-1.92 2.32-2.38 3.76-1.86 1.03-2.83 3.01-3.13 5.07-2.6.74-2.41 5.24-3.88 6.81-1.74 1.85-4.53 4.69-2.45 7.78 4.06 6.03 10.78-7.51 25.67-6.81 1.59.08 3.21-.2 4.76.37l1.03-.04c.31.28.64.54.97.8.3.37.63.96 1.13 1.08.68.17 1.26.62 1.91.86 1.37 1.41 2.29 3.27 3.98 4.3.03.69.65 1.33 1.05 1.83.09.5-.02 1.47.86 1.13.12.23-.04.59.03.85 1.85 6.56.86 13.36-.04 20.06-.04.33-.02.67-.04 1-2.02 2.57-2.75 6.02-3.76 9.11-.1.31-.25.73-.23 1.05-2.92 2.55-4.97 6.32-6.5 9.87-.46.2-.77.85-1.24 1.01-1.02.34-1.82 1.02-2.07 2.11-1.28.49-1.97 2.01-2.94 2.83-8.13 6.89-18.05 10.46-29.06 10.23-16.31-.33-29.2-8.71-36.41-23.29-4.48-9.05-6.14-18.88-7.38-29.23-.46-3.8.29-7.92-2.08-10.7.09-.28.03-.71-.04-1-.17-.68.12-2.36-.99-2.06 0-.29-.03-.67-.12-.94-.89-2.96-3.05-6.2-5.62-6.99-3.08-.95-7.2-1.36-9.42.69-5.18 4.79-5.01 11.39-5.01 17.39v11.86c0 5 .57 10.28.82 15.15l.2 3.77c.1 2 .15 4.61 1.93 6.09 0 .25.04.54.11.78 1.22 4.51 4.88 7.89 8.06 11.22.05.41-.58.86-.86 1.1l-21.29.9c-6.54.28-13.33-1-19.89-.04h-1.08c-.94-.08-1.92.06-2.87.06h-26.16c-1.96 0-3.95-.35-5.9-.07-4.39.63-9.03-.95-13.11.85-1.59-.89-4.62.93-6.34-1.66 12.36-5.91 13.76-26.11 14.07-37.75.63-23.36.9-46.34.02-69.69-.34-8.92-1.25-17.75-6.24-24.86-1.84-2.62-4.11-4.39-6.88-4.19-5.22.37-11.64 11.36-12.41 16.82-.92 6.49-3.12 12.93-3.36 19.52l-.51 14.09-.92 67.44c-.1 7.39-.6 13.99-.48 21.84-2 .6-7.13 1.79-8.92-.37-5.89-7.11-9.92-15.12-14.73-23.06l-21.81-36.05-9.52-15.65-22.9-38.73c-3.15 1.44-1.8 25.14-1.62 28.82.82 16.78 1.62 33.4 6.57 49.63 1.48 4.85 3.92 9.35 6.25 13.81 7.33 13.99 21.42 15.71 25.05 17.49.24.12-.02.75 0 1.41-1.86.36-4.17.44-6.17.44l-28.16-.1-2.92-.19-26.99.25c-12.11.11-23.58 2.4-33.18 9.8-4.14 3.19-8.55 5.67-11.9 9.18-.72.76-2.61.44-2.85 1.9l-15.74 6.53c-15.12 6.27-32.19 3.12-47.47-1.51-.26-.08-.59.07-.84-.03.46-.9-.66-.88-1.17-1.02-.33-.09-.7-.09-1.04-.13-8.02-4.46-15.38-9.6-22.21-15.77-.52-.47-1.16-1.18-1.62-1.73-5.45-6.59-9.33-14.15-13.96-21.27v-.99c.02-.52-.29-1.05-.87-1l-.04-1c-.02-.44-.16-1.46-.85-1.09-.14-1.02-.23-2.08-.53-3.07l-5.08-16.81c-2.53-8.36-4.9-16.31-8.44-24.45-2.97-3.02-8.3-3.61-11.85-1.05-4.72 3.4-6.67 9.24-5.82 14.51-.37.94-.28 3.14-2.03 3.03-3.68-.24-2.66-10.76-.72-15.33 7.96-18.75 18.21-16.26 24.81-30.22.39-.83 1.14-1.39 1.7-1.15.38.17.76.85 1.07.88 2.22 2.67 3.72 6.1 6.77 7.88.18.65-.39 1.59-.13 2.19L305 82.79c14.2.2 25.46 7.25 30.09 20.71 2.04 5.91 5.1 11.3 6.08 17.64.11.69.65 1.23 1.12.82-.02.26-.05.57.01.82 2.01 8.42 4.88 16.57 8.24 25.12 1.32 3.37 3.71 6.24 5.66 9.28 4.89 7.63 11.33 13.33 19.39 16.61.27.11.77.2 1.06.15 11.23 6.85 27.62 6.92 38.77-.08.54-.34 1.19-.73 1.62-1.21 4.28-.22 7.97-3.45 10.36-6.88.23-.33.54-.81.86-1.03 2.94-2.03 5.01-5.46 6.8-9.53l-49.85-.13c-.87.03-3.79.51-3.75-.84.05-1.84 2.34-1.77 3.08-2.22 6.64-1.38 10.58-15.44 10.61-22.5l.44-112.32c-18.01-6.47-45.42-12.37-61.48-2.62-9.77 5.93-13.55 15.23-13.62 26.37-.06 10.4 3.55 21.57 12.96 25.9.37.17.6.74.92 1.01 6.59 5.54 16.51 6.52 24.28 2.21 9.98-5.53 13.02-16.79 8.17-26.82-1.01-2.1 1.36-4.03 2.31-5.31.64 0 1.39.09 2.01-.05 6.53-1.46 12.39 2.97 13.16 10.44s-2.93 15.43-8.72 20.81c-11.48 10.66-28.53 12-41.93 4.9-11.48-6.09-19.47-15.76-20.09-28.24l-.09-1.85q-.15-2.535 0-5.07c.23-.5-.22-1.41.09-1.86 1.44-2.09.32-4.95 1.59-7.49 2.18-4.36 4.17-9.11 7.05-12.74 4.53-5.71 11.01-9.21 17.18-12.84.31-.07.73.12 1.03 0 .71-.28 1.38-.68 2.03-1.08.53.05 1.44.17 1.02-.73l1.9-.21c3.39-.37 6.95-.45 10.11-1.88.8-.36 2.04.25 2.9-.06Zm292.23 152.3c3.77-.99 9.76-18.2 9.75-24.69l-.11-88.12c0-7.93-6.33-22.16-9.67-22.56-8.9-1.05-12.38 9.88-13.54 17.73-.6 4.05-1.55 8.05-1.54 12.29l.24 72.66c.02 6.11.5 12.35 1.91 17.68s6.55 16.7 12.96 15.01" class="cls-1"/>
    <path d="M124.64 11.7c1.24.07 2.54-.33 3.78.04 11.64 3.39 19.27 14.42 17.87 27.16-1.67 15.14-13.21 41.35-19.65 56.3-5.66 13.14-16.23 43.96 2.87 49.75.48.14 1.38.6 1.75.93 5.87 5.05 30.21 1.96 35.21-1.9.27-.02.57-.04.83-.1 6.26-1.6 11.24-6.28 16.43-10.47 8.47-6.85 15.81-19.41 10.05-28.93-13.01-9.68-44.26 25.01-52.22 10.44-.02-1.15.59-2.95-.03-4.02.69-.81.69-2.21 1.59-3.39 11.06-14.51 21.79-28.98 30.33-44.65.12-.23-.07-.61.04-.84.85.47 1.02-.53 1.04-1.06l.04-1c.33-.29.77-.57.95-.99.39-.91.75-1.91.9-2.9 1.2-.34.94-2.09 1.12-3.09.1-.55.25-1.17.21-1.73 2.82-1.84 3.46-6.05 3.75-9.3.08-.9.48-2.13.82-2.97 1.53-3.79 4.16-16.16-1.05-20.72-1.71-1.49-3.28-2.38-5.99-3.77l29.27-.66c4.33 6.55 6.56 13.66 8.84 21.27 3.09 10.32 6.48 20.24 9.6 30.48l4.16 13.62 16.2 48.64 5.81 14.48c.34.86 1.49 1.49 2.01 1.6 3.09.66 3.72-17.11 3.73-19.62l.16-86.82c.03-18.62-15.71-24.97-8.77-23.48.4.09.85-.05 1.25 0h56.77c1.71 0 3.42-.04 5.13.07 2.48 1.29 6.31-.02 7.83 2.72l-5.04 8.18c-.64.04-1.32-.22-1.96-.14-3.09-5.38-23.09-5.53-30-4.81-1.21 14.94-.97 29.03-.84 43.98l.55 63.87c.17 19.71 12.16 23.21 8.87 26.04-.42.37-1.27.85-2.49.86l-74.16.36c-.91 0-1.93-.25-2.81-.13-.46-2.11 2.64-1.43 3.58-2.44 4.57-4.98 6.14-11.71 4.98-18.21-2.16-12.14-5.19-23.49-8.96-35.24-3.41-10.61-6-20.94-9.37-31.49l-7.61-23.87c-.86-2.7-.6-5.46-2.66-7.51-1.65 3.95-1.46 8.42-3.14 12.52l-6.71 16.31c-.3.2-.43.71-.74.87-.89.45-1.65 1.13-2.25 2.32-4.25 8.49-9.39 15.87-14.72 23.79-1.17 1.74-3.27 5.29-1.36 7.03 6.82 6.22 24.58-19.76 39.38-1.19.17.66.56 1.27.9 1.85 4.86 19.96-8.75 35.85-22.21 48.51-.29.28-.8.68-.94 1.05-2.64.38-4.34 2.55-6.88 4.14-12.5 7.82-27.85 11.45-42.37 8.69-25.23-4.8-36.7-28.4-30.71-50.76 7.77-29.04 25.29-52.68 29.47-82.43.41-2.89.96-7.15-1.5-9.05-5.01-3.88-11.66-.81-14.98 4.53-8.13 13.1-12.88 27.57-18.42 42.2l-18.74 49.55c-.09.24-.1.58-.1.83-1.42.8-1.82 2.45-1.99 3.98-1.59 1.13-1.43 3.46-3.34 5.49-4.97-9.16-8.5-18.19-12.65-27.37L39.79 64.7c-3.25-7.19-6.59-13.99-10.08-21.12-3.9-7.98-1.16 47.85-1.09 49.12.41 7.53 2.51 14.32 4.36 21.49 2.52 9.77 7.52 24.41 15.58 30.65 5.71 4.42 12.61 6.28 19.93 7.32-.08 2.19-2.32 2.43-4.14 2.44l-38.93.11c-8.44.02-16.5.51-25.44-.95 5.01-3.16 11.01-3.98 14.02-9.13 4.12-7.05 4.92-15.37 5.88-23.3.46-3.84 1.63-7.48 1.62-11.4l-.04-64.84-1.2-8.92C17.74 17.53 8.31 18.69 5.38 14.94c3.72.14 7.46.21 11.05-.88.88.28 2.04-.22 2.89.12 4.44 1.74 9.5.8 14.11-.12 1.24-.25 2.68.11 3.95-.01 2.35-.22 4.73-.07 7.08-.02 1.94.04 3.89-.05 5.83-.06h2.25c.66-.01 1.34.26 1.4.77l.18 1.36c-6.75 4.53-.47 22.49 2.9 29.31 7.59 15.37 11.43 26.76 19.63 42.83 2.35-4.17 4.34-8.04 4.9-12.39.04-.29-.11-.63-.01-.91.3-.27.88-.55.94-1 .16-1.15 1.42-2.87 1-4.06 2.05-2.93 3.09-6.49 3.8-9.98.06-.32.2-.64.22-.96 2.98-5.57 5.24-11.88 6.84-18.02.61-.36.55-1.35 1-1.77.9-.86 1.37-1.93 1.15-3.21.6-.46.55-1.52.95-2.1 3.17-4.53 5.14-9.71 8.93-13.81.3-.33.82-.81 1.2-1.01 5.8-2.34 7.54-7.84 17.04-7.31Z" class="cls-1"/>
  </g>
</svg>
